<svg width="24" height="26" viewBox="0 0 24 26" fill="none" xmlns="http://www.w3.org/2000/svg">
<path d="M17.144 0.464966C15.897 0.464966 14.8378 1.27626 14.4397 2.38804H0.797852V4.31112H14.4397C14.8378 5.4229 15.897 6.2342 17.144 6.2342C18.391 6.2342 19.4502 5.4229 19.8483 4.31112H23.8748V2.38804H19.8483C19.4502 1.27626 18.391 0.464966 17.144 0.464966ZM17.144 2.38804C17.6849 2.38804 18.1055 2.80872 18.1055 3.34958C18.1055 3.89045 17.6849 4.31112 17.144 4.31112C16.6031 4.31112 16.1825 3.89045 16.1825 3.34958C16.1825 2.80872 16.6031 2.38804 17.144 2.38804ZM7.52862 10.0803C6.28163 10.0803 5.22243 10.8916 4.8243 12.0034H0.797852V13.9265H4.8243C5.22243 15.0383 6.28163 15.8496 7.52862 15.8496C8.77562 15.8496 9.83481 15.0383 10.2329 13.9265H23.8748V12.0034H10.2329C9.83481 10.8916 8.77562 10.0803 7.52862 10.0803ZM7.52862 12.0034C8.06949 12.0034 8.49016 12.4241 8.49016 12.965C8.49016 13.5058 8.06949 13.9265 7.52862 13.9265C6.98776 13.9265 6.56708 13.5058 6.56708 12.965C6.56708 12.4241 6.98776 12.0034 7.52862 12.0034ZM17.144 19.6957C15.897 19.6957 14.8378 20.507 14.4397 21.6188H0.797852V23.5419H14.4397C14.8378 24.6537 15.897 25.465 17.144 25.465C18.391 25.465 19.4502 24.6537 19.8483 23.5419H23.8748V21.6188H19.8483C19.4502 20.507 18.391 19.6957 17.144 19.6957ZM17.144 21.6188C17.6849 21.6188 18.1055 22.0395 18.1055 22.5803C18.1055 23.1212 17.6849 23.5419 17.144 23.5419C16.6031 23.5419 16.1825 23.1212 16.1825 22.5803C16.1825 22.0395 16.6031 21.6188 17.144 21.6188Z" fill="white"/>
</svg>
