<svg width="45" height="45" viewBox="0 0 45 45" fill="none" xmlns="http://www.w3.org/2000/svg">
<rect width="45" height="45" rx="22.5" fill="#4E4B66"/>
<path d="M27 16C25.625 16 24.5 17.125 24.5 18.5C24.5 18.6719 24.5195 18.8359 24.5508 19L20.0195 21.0391C19.5625 20.4141 18.8281 20 18 20C16.625 20 15.5 21.125 15.5 22.5C15.5 23.875 16.625 25 18 25C18.832 25 19.5742 24.582 20.0273 23.9492L24.5625 25.9648C24.5234 26.1367 24.5 26.3164 24.5 26.5C24.5 27.875 25.625 29 27 29C28.375 29 29.5 27.875 29.5 26.5C29.5 25.125 28.375 24 27 24C26.168 24 25.4258 24.418 24.9727 25.0508L20.4375 23.0391C20.4766 22.8633 20.5 22.6836 20.5 22.5C20.5 22.3125 20.4766 22.1289 20.4375 21.9531L24.9453 19.9141C25.3984 20.5703 26.1523 21 27 21C28.375 21 29.5 19.875 29.5 18.5C29.5 17.125 28.375 16 27 16ZM27 17C27.8359 17 28.5 17.6641 28.5 18.5C28.5 19.3359 27.8359 20 27 20C26.1641 20 25.5 19.3359 25.5 18.5C25.5 17.6641 26.1641 17 27 17ZM18 21C18.8359 21 19.5 21.6641 19.5 22.5C19.5 23.3359 18.8359 24 18 24C17.1641 24 16.5 23.3359 16.5 22.5C16.5 21.6641 17.1641 21 18 21ZM27 25C27.8359 25 28.5 25.6641 28.5 26.5C28.5 27.3359 27.8359 28 27 28C26.1641 28 25.5 27.3359 25.5 26.5C25.5 25.6641 26.1641 25 27 25Z" fill="white"/>
</svg>
